<svg width="16" height="16" viewBox="0 0 16 16" fill="none" xmlns="http://www.w3.org/2000/svg">
<g clip-path="url(#clip0_753_337)">
<path d="M6.60033 2.82663C7.05921 2.71921 7.52904 2.66552 8.00033 2.66663C12.667 2.66663 15.3337 7.99996 15.3337 7.99996C14.929 8.75703 14.4464 9.46978 13.8937 10.1266M9.41366 9.41329C9.23056 9.60979 9.00976 9.7674 8.76443 9.87671C8.5191 9.98602 8.25426 10.0448 7.98572 10.0495C7.71718 10.0543 7.45043 10.0049 7.2014 9.90429C6.95236 9.8037 6.72614 9.65398 6.53622 9.46406C6.34631 9.27415 6.19659 9.04792 6.096 8.79889C5.99541 8.54985 5.94601 8.28311 5.95075 8.01457C5.95549 7.74603 6.01426 7.48119 6.12358 7.23586C6.23289 6.99053 6.39049 6.76973 6.58699 6.58663M0.666992 0.666626L15.3337 15.3333M11.9603 11.96C10.8207 12.8286 9.43306 13.3099 8.00033 13.3333C3.33366 13.3333 0.666992 7.99996 0.666992 7.99996C1.49625 6.45456 2.64642 5.10436 4.04033 4.03996L11.9603 11.96Z" stroke="#667085" stroke-width="2" stroke-linecap="round" stroke-linejoin="round"/>
</g>
<defs>
<clipPath id="clip0_753_337">
<rect width="16" height="16" fill="white"/>
</clipPath>
</defs>
</svg>
