<svg width="30" height="30" viewBox="0 0 30 30" fill="none" xmlns="http://www.w3.org/2000/svg">
<path d="M27.1745 0.083252H3.17448C1.70115 0.083252 0.507812 1.27659 0.507812 2.74992V26.7499C0.507812 28.2233 1.70115 29.4166 3.17448 29.4166H16.5078V17.4166H12.5078V13.4166H16.5078V11.2686C16.5078 7.20192 18.4891 5.41659 21.8691 5.41659C23.4878 5.41659 24.3438 5.53658 24.7491 5.59125V9.41659H22.4438C21.0091 9.41659 20.5078 10.1739 20.5078 11.7073V13.4166H24.7131L24.1425 17.4166H20.5078V29.4166H27.1745C28.6478 29.4166 29.8411 28.2233 29.8411 26.7499V2.74992C29.8411 1.27659 28.6465 0.083252 27.1745 0.083252Z" fill="white"/>
</svg>
