<svg width="16" height="16" viewBox="0 0 16 16" fill="none" xmlns="http://www.w3.org/2000/svg">
<path d="M15.0007 8.15546C15.0007 7.57991 14.953 7.15991 14.8499 6.72437H8.14355V9.32211H12.08C12.0007 9.96769 11.5721 10.9399 10.6197 11.5932L10.6064 11.6802L12.7268 13.29L12.8737 13.3044C14.2229 12.0832 15.0007 10.2866 15.0007 8.15546Z" fill="#4285F4"/>
<path d="M8.14266 15C10.0712 15 11.6902 14.3778 12.8728 13.3044L10.6188 11.5933C10.0157 12.0055 9.20613 12.2933 8.14266 12.2933C6.25379 12.2933 4.65064 11.0722 4.07916 9.3844L3.99539 9.39137L1.79055 11.0636L1.76172 11.1422C2.93631 13.4288 5.349 15 8.14266 15Z" fill="#34A853"/>
<path d="M4.08031 9.38442C3.92952 8.94887 3.84225 8.48217 3.84225 7.99997C3.84225 7.51772 3.92952 7.05107 4.07237 6.61552L4.06838 6.52276L1.8359 4.82367L1.76286 4.85772C1.27876 5.80662 1.00098 6.87219 1.00098 7.99997C1.00098 9.12774 1.27876 10.1933 1.76286 11.1422L4.08031 9.38442Z" fill="#FBBC05"/>
<path d="M8.1427 3.70665C9.48395 3.70665 10.3887 4.27442 10.9046 4.7489L12.9205 2.82C11.6824 1.69222 10.0712 1 8.1427 1C5.34902 1 2.93631 2.5711 1.76172 4.85775L4.07124 6.61555C4.65066 4.92777 6.25382 3.70665 8.1427 3.70665Z" fill="#EB4335"/>
</svg>
