<svg width="20" height="20" viewBox="0 0 20 20" fill="none" xmlns="http://www.w3.org/2000/svg">
<g opacity="0.85">
<path d="M15 15.7167H14.3667C13.7 15.7167 13.0667 15.975 12.6 16.4417L11.175 17.85C10.525 18.4917 9.46668 18.4917 8.81668 17.85L7.39166 16.4417C6.925 15.975 6.28333 15.7167 5.625 15.7167H5C3.61667 15.7167 2.5 14.6084 2.5 13.2417V4.15002C2.5 2.78336 3.61667 1.67505 5 1.67505H15C16.3833 1.67505 17.5 2.78336 17.5 4.15002V13.2417C17.5 14.6001 16.3833 15.7167 15 15.7167Z" stroke="#292D32" stroke-width="1.5" stroke-miterlimit="10" stroke-linecap="round" stroke-linejoin="round"/>
<path d="M10.0003 8.33338C11.0726 8.33338 11.942 7.46406 11.942 6.3917C11.942 5.31935 11.0726 4.45007 10.0003 4.45007C8.92792 4.45007 8.05859 5.31935 8.05859 6.3917C8.05859 7.46406 8.92792 8.33338 10.0003 8.33338Z" stroke="#292D32" stroke-width="1.5" stroke-linecap="round" stroke-linejoin="round"/>
<path d="M13.3337 13.05C13.3337 11.55 11.842 10.3334 10.0003 10.3334C8.15866 10.3334 6.66699 11.55 6.66699 13.05" stroke="#292D32" stroke-width="1.5" stroke-linecap="round" stroke-linejoin="round"/>
</g>
</svg>
