<svg width="33" height="33" viewBox="0 0 33 33" fill="none" xmlns="http://www.w3.org/2000/svg">
<path d="M9.50505 0.75C4.35971 0.75 0.174316 4.93927 0.174316 10.0859V23.4193C0.174316 28.5646 4.36359 32.75 9.51025 32.75H22.8436C27.9889 32.75 32.1743 28.5607 32.1743 23.4141V10.0807C32.1743 4.9354 27.985 0.75 22.8384 0.75H9.50505ZM25.5077 6.08333C26.2437 6.08333 26.841 6.68067 26.841 7.41667C26.841 8.15267 26.2437 8.75 25.5077 8.75C24.7717 8.75 24.1743 8.15267 24.1743 7.41667C24.1743 6.68067 24.7717 6.08333 25.5077 6.08333ZM16.1743 8.75C20.5863 8.75 24.1743 12.338 24.1743 16.75C24.1743 21.162 20.5863 24.75 16.1743 24.75C11.7623 24.75 8.17432 21.162 8.17432 16.75C8.17432 12.338 11.7623 8.75 16.1743 8.75ZM16.1743 11.4167C14.7598 11.4167 13.4033 11.9786 12.4031 12.9788C11.4029 13.979 10.841 15.3355 10.841 16.75C10.841 18.1645 11.4029 19.521 12.4031 20.5212C13.4033 21.5214 14.7598 22.0833 16.1743 22.0833C17.5888 22.0833 18.9454 21.5214 19.9456 20.5212C20.9457 19.521 21.5077 18.1645 21.5077 16.75C21.5077 15.3355 20.9457 13.979 19.9456 12.9788C18.9454 11.9786 17.5888 11.4167 16.1743 11.4167Z" fill="white"/>
</svg>
