<svg width="30" height="30" viewBox="0 0 30 30" fill="none" xmlns="http://www.w3.org/2000/svg">
<path d="M27.1745 0.083252H3.17448C1.70115 0.083252 0.507812 1.27659 0.507812 2.74992V26.7499C0.507812 28.2233 1.70115 29.4166 3.17448 29.4166H27.1745C28.6478 29.4166 29.8411 28.2233 29.8411 26.7499V2.74992C29.8411 1.27659 28.6478 0.083252 27.1745 0.083252ZM9.77981 24.0833H5.84648V11.4273H9.77981V24.0833ZM7.77315 9.61792C6.50515 9.61792 5.47981 8.58992 5.47981 7.32458C5.47981 6.05925 6.50648 5.03259 7.77315 5.03259C9.03715 5.03259 10.0651 6.06059 10.0651 7.32458C10.0651 8.58992 9.03715 9.61792 7.77315 9.61792ZM24.5131 24.0833H20.5825V17.9286C20.5825 16.4606 20.5558 14.5726 18.5385 14.5726C16.4918 14.5726 16.1771 16.1713 16.1771 17.8219V24.0833H12.2465V11.4273H16.0198V13.1566H16.0731C16.5985 12.1619 17.8811 11.1126 19.7945 11.1126C23.7771 11.1126 24.5131 13.7339 24.5131 17.1419V24.0833Z" fill="white"/>
</svg>
