<svg width="30" height="30" viewBox="0 0 30 30" fill="none" xmlns="http://www.w3.org/2000/svg">
<path d="M3.17448 0.083252C1.70115 0.083252 0.507812 1.27659 0.507812 2.74992V26.7499C0.507812 28.2233 1.70115 29.4166 3.17448 29.4166H27.1745C28.6478 29.4166 29.8411 28.2233 29.8411 26.7499V2.74992C29.8411 1.27659 28.6478 0.083252 27.1745 0.083252H3.17448ZM6.70573 6.74992H12.8542L16.4427 11.8801L20.8828 6.74992H22.8177L17.3125 13.1249L24.0469 22.7499H17.8984L13.9167 17.0572L9 22.7499H7.03385L13.0417 15.8098L6.70573 6.74992ZM9.67969 8.32804L18.6849 21.164H21.0703L12.0625 8.32804H9.67969Z" fill="white"/>
</svg>
